<svg xmlns="http://www.w3.org/2000/svg" width="256" height="256"><path fill-opacity=".016" d="M0 128.004v128.004l128.25-.254 128.25-.254.254-127.75L257.008 0H0v128.004m.485.496c0 70.4.119 99.053.265 63.672.146-35.38.146-92.98 0-128C.604 29.153.485 58.1.485 128.5" fill="#1976D2" fill-rule="evenodd"/><path fill-opacity=".203" d="M89.5 9.519c-4.348 2.184-9.355 8.229-10.578 12.771-2.272 8.436 2.435 18.768 10.28 22.566 4.329 2.096 5.444 2.144 49.364 2.122 41.432-.02 45.249-.165 48.975-1.858 3.643-1.654 7.185-5.016 9.959-9.451.897-1.434 2.517-1.219 15.75 2.089 8.113 2.028 14.744 3.925 14.737 4.215-.007.29-3.964 6.827-8.792 14.527l-8.78 14-100.457.5c-97.527.485-100.533.557-103.015 2.443-1.406 1.069-3.431 3.094-4.5 4.5C.563 80.417.491 83.019.232 158.076l-.268 77.575 2.292 3.401c1.26 1.87 3.81 4.424 5.666 5.674L11.296 247h233.408l3.359-2.263c1.847-1.245 4.599-4.058 6.115-6.25l2.756-3.987.033-76.917c.018-42.304-.249-76.634-.594-76.29-.344.345-1.592-.807-2.773-2.559-3.896-5.781-7.969-7.72-16.498-7.852-4.181-.066-7.959-.059-8.395.014-1.072.179-.071-1.59 9.751-17.243 4.654-7.416 8.737-14.584 9.075-15.928.436-1.736-.06-3.225-1.71-5.14-2.023-2.348-5.318-3.448-25.481-8.501-22.564-5.655-23.24-5.899-26.398-9.495-6.001-6.835-3.944-6.59-55.144-6.583-39.245.005-46.757.236-49.3 1.513M97 22.694c-1.874.67-4 3.288-4 4.926 0 .68.707 1.944 1.571 2.809 1.38 1.379 6.79 1.571 44.3 1.571 45.173 0 45.129.005 45.129-4.643 0-5.234-1.103-5.364-44.973-5.278-22.29.043-41.202.32-42.027.615M.476 159c0 42.625.123 60.063.274 38.75.15-21.312.15-56.187 0-77.5C.599 98.938.476 116.375.476 159M15 159v73h226V86H15v73m9-21v45h39v41h89v-90h-40V93H24v45m142.081-28.598c-.904 1.09-.351 4.263 2.483 14.25 3.294 11.603 5.429 16.246 22.042 47.924C200.722 190.868 209 207.102 209 207.652c0 1.593 4.462 5.348 6.354 5.348 2.686 0 9.465-3.793 10.613-5.938 1.567-2.928 1.262-4.884-1.307-8.379-1.288-1.751-10.122-18.033-19.633-36.183-15.689-29.941-18.122-33.997-26.244-43.75-4.923-5.912-9.534-10.75-10.245-10.75-.711 0-1.817.631-2.457 1.402M40 138v29h23v-33h33v-25H40v29m40 20.5v8.5h16v-17H80v8.5m32 8V183H80v25h56v-58h-24v16.5" fill="#1976D2" fill-rule="evenodd"/><path fill-opacity=".635" d="M90.5 9.393c-4.165 1.825-9.235 7.275-10.592 11.386-1.916 5.804-.698 13.676 2.781 17.981 6.474 8.01 4.435 7.704 53.557 8.03 30.477.201 45.031-.057 47.983-.852 4.153-1.118 11.896-7.654 12.957-10.938.411-1.271 2.881-.91 16.144 2.354 10.659 2.624 15.452 4.22 15.011 5-.356.63-4.48 7.334-9.163 14.896L210.662 71h-98.863C2.456 71 8.677 70.623 3.382 77.566L.5 81.344V236.5l2.334 3.273c1.284 1.8 4.079 4.162 6.21 5.25 3.795 1.935 6.288 1.977 118.704 1.977h114.828l4.462-2.25c3.116-1.571 5.065-3.456 6.462-6.25 1.1-2.2 2.338-4.15 2.75-4.333.413-.184.714-34.609.671-76.5-.043-41.892-.321-75.56-.616-74.819-.326.82-1.231-.2-2.305-2.598-2.927-6.539-7.005-8.69-17.25-9.099-4.812-.193-8.75-.573-8.75-.844 0-.272 4.275-7.374 9.5-15.781 5.692-9.159 9.5-16.337 9.5-17.906 0-4.859-2.601-6.03-26.806-12.072-22.143-5.526-23.234-5.912-25.633-9.057-1.379-1.808-4.461-4.232-6.85-5.389-4.219-2.042-5.615-2.101-49.277-2.063-34.864.031-45.606.334-47.934 1.354m4.071 14.178c-2.255 2.256-1.941 6.057.652 7.872C97.146 32.791 102.96 33 138.5 33s41.354-.209 43.277-1.557c2.853-1.998 3.023-6.945.289-8.408C180.82 22.369 165.173 22 138.137 22c-36.843 0-42.187.193-43.566 1.571M.476 159c0 42.075.123 59.288.274 38.25.15-21.037.15-55.462 0-76.5C.599 99.713.476 116.925.476 159m13.986-72.754c-.264.69-.363 33.879-.221 73.754l.259 72.5h227v-147l-113.28-.254c-90.096-.203-113.378.002-113.758 1M24 138v45h40v41.021l43.75-.26 43.75-.261v-89h-40l.289-20.75.288-20.75H24v45m14.85 0c-.082 15.95-.195 29.525-.25 30.167-.055.641.525 1.375 1.289 1.629.843.281 1.115.019.691-.666-.504-.816 2.653-1.13 11.361-1.13H64v-34h33v-25H39l-.15 29m127.52-27.523c-.343.894.841 6.89 2.63 13.324 3.1 11.147 11.645 28.722 41.912 86.199 1.945 3.695 11.4 1.506 14.601-3.38 1.73-2.64 1.332-4.219-2.551-10.12-1.448-2.2-10.019-18.116-19.047-35.368-14.724-28.136-17.294-32.411-24.95-41.493-8.527-10.117-11.421-12.221-12.595-9.162m14.745 26.432c-1.092.69 2.084 7.467 14.989 31.984 9.006 17.109 16.829 31.1 17.385 31.092 4.066-.062 3.216-2.232-12.725-32.485-8.945-16.975-16.714-31-17.264-31.166-.55-.166-1.623.093-2.385.575m-101.576 13.3c-.236.71-.566 5.116-.734 9.791l-.305 8.5 8-.307c4.4-.17 8.596-.506 9.325-.748 1.001-.332 1.246-2.587 1-9.193L96.5 149.5l-8.266-.291c-6.071-.213-8.379.052-8.695 1M112 166v17H79v11.918c0 6.555-.272 12.628-.605 13.496-.486 1.266-.042 1.487 2.25 1.116 4.798-.776 23.011-1.465 39.605-1.498L136 208v-59h-24v17m104.441 39.555c-1.83 1.467-1.798 1.487.559.365 3.061-1.458 3.628-1.92 2.358-1.92-.537 0-1.849.7-2.917 1.555" fill="#1976D2" fill-rule="evenodd"/><path fill-opacity=".329" d="M95.5 8.491c-.55.184-2.229.605-3.732.936-4.115.907-9.429 6.117-11.339 11.12-3.312 8.672.062 18.312 8.045 22.991l4.3 2.519 46.942-.278 46.942-.279 3.672-2.802c2.02-1.541 4.404-4.241 5.298-6 .895-1.759 1.736-3.328 1.87-3.486.379-.446 28.967 6.84 30.461 7.763 1 .618-.876 4.328-7.67 15.171L211.296 70.5l-99.898.5-99.898.5L8 73.681c-1.925 1.199-4.4 3.674-5.5 5.5C.557 82.405.491 84.56.192 154.5c-.169 39.6-.019 74.403.333 77.339.836 6.966 5.467 12.418 11.93 14.045 6.151 1.549 225.34 1.567 231.045.019 5.129-1.392 10.302-6.33 11.103-10.6.343-1.829 1.023-3.572 1.51-3.873.503-.311.887-32.182.887-73.548 0-42.419-.373-72.77-.89-72.45-.49.303-1.178-.98-1.529-2.85-.407-2.173-2.043-4.67-4.531-6.918-4.028-3.639-6.813-4.41-17.764-4.921l-5.215-.243 9.965-15.967c5.48-8.782 9.964-16.719 9.964-17.639 0-4.476-2.989-5.814-26.608-11.91-23.07-5.954-23.116-5.971-27.503-10.359-2.652-2.651-5.981-4.835-8.392-5.504-3.61-1.002-86.13-1.586-88.997-.63m-2.004 15.874c-1.794 2.739-.738 6.945 2.009 7.999.912.35 20.721.636 44.02.636h42.362l1.556-2.223c2.05-2.925 1.967-5.096-.272-7.122-1.642-1.486-6.23-1.655-44.977-1.655H95.046l-1.55 2.365M14.244 158.75l.256 73.75h227l.256-73.75.257-73.75H13.987l.257 73.75M.475 159c0 40.425.123 56.963.275 36.75.151-20.212.151-53.287 0-73.5C.598 102.038.475 118.575.475 159M25 138.333V183h39v41h87v-90l-18.75.147-18.75.147 14.5.89c7.975.489 16.188.69 18.25.448l3.75-.442-.239 43.155-.239 43.155-.272-42.25-.272-42.25h-18.789c-13.28 0-19.141-.352-19.989-1.2-.851-.851-1.2-6.856-1.2-20.652V95.695l-11.75.79c-6.463.434-13.1.764-14.75.734-1.921-.036-2.417.184-1.378.612 1.051.434 1.517 1.614 1.324 3.359-.218 1.974.078 2.546 1.11 2.15 1.076-.413 1.163-1.047.371-2.69-1.011-2.095-.997-2.1.531-.19.863 1.077 1.414 2.427 1.225 3-.213.645-8.861 1.36-22.763 1.883-12.331.463-22.847 1.251-23.37 1.75-.57.544 10.744.907 28.25.907H97v26l-7.25.189-7.25.189 6 .337c8.722.489 9.943 1.537 2.697 2.314-3.466.372-6.841 1.259-7.5 1.97-.943 1.02-.905 1.128.183.509.945-.539 1.22-.349.875.603-.278.764-1.124 1.244-1.88 1.068-1.063-.249-1.106-.048-.189.885 1.415 1.441-.559 3.936-3.115 3.936-1.339 0-1.541 1.511-1.365 10.25l.205 10.25.334-8.75.333-8.75H97v18.919l-8.25.337-8.25.337 8.25.203c10.398.257 11.111 2.204.807 2.204-7.105 0-7.423.099-7.023 2.177.231 1.197.992 2.54 1.693 2.984 1.021.648 1.014.811-.036.824-.72.008-1.024.476-.676 1.04.349.563.263.965-.191.892-.453-.073-1.837.193-3.074.591-2.197.708-2.245 1.032-2.035 13.859l.215 13.133.317-11.75.316-11.75h16.469c10.646 0 16.468-.365 16.468-1.031 0-.568-.675-1.291-1.5-1.607-1.252-.481-1.481-3.163-1.384-16.219.064-8.604.322-14.856.573-13.893.559 2.138 2.311 2.327 2.311.25 0-1.25 2-1.5 12-1.5h12v60l-27.25.226-27.25.226 27.5.524 27.5.524-18.41.75c-10.126.412-22.501.782-27.5.82-6.009.047-8.412.362-7.09.93 1.1.473 1.593.891 1.095.93-.498.038-.09.97.905 2.07 1.123 1.241 1.349 2 .596 2-.668 0-.893.52-.501 1.155.457.738.273.882-.509.398-.672-.415-1.023-1.275-.779-1.909.243-.635-.169-1.725-.916-2.423-1.126-1.052-1.3-.775-1.02 1.628.332 2.854.248 2.906-5.664 3.524C65.9 221.502 67 223.628 67 201.622c0-15.656-.277-19.607-1.442-20.574-1.028-.853-6.693-1.127-19.75-.954l-18.308.243-.5-42.586c-.275-23.422-.837-42.923-1.25-43.335-.413-.412-.75 19.351-.75 43.917m77.762-43.626c1.244.239 3.044.23 4-.02s-.062-.446-2.262-.435c-2.2.011-2.982.216-1.738.455m63.735 15.297c-.341.553 1.062 6.912 3.118 14.133 3.397 11.934 5.372 16.232 21.696 47.232 9.876 18.756 18.392 35.349 18.923 36.873 1.411 4.048 5.11 4.623 10.71 1.665 3.543-1.872 4.628-3.038 4.881-5.245.179-1.562-.339-3.587-1.15-4.5-.811-.914-9.59-17.078-19.509-35.919-16.166-30.71-18.935-35.343-26.742-44.75-8.289-9.987-10.521-11.763-11.927-9.489m9.764 18.496c1.084 3.532 2.109 4.328 3.233 2.509.61-.987-2.401-5.918-3.65-5.978-.361-.017-.173 1.544.417 3.469M64 150.934v16.933l-2.75.454c-1.669.276-1.178.4 1.25.317l4-.138.297-14c.309-14.583-.223-20.5-1.842-20.5-.569 0-.955 6.847-.955 16.934m117.257-14.401c-2.137 1.497-2.141 1.551-.314 4.74 1.017 1.775 8.471 15.827 16.565 31.227 8.093 15.4 14.852 28.149 15.018 28.331.504.552 4.474-1.843 4.474-2.699 0-1.048-31.529-61.061-32.689-62.221-.523-.523-1.786-.266-3.054.622m-70.178 39.05c.048 1.165.285 1.402.604.605.289-.722.253-1.585-.079-1.917-.332-.332-.568.258-.525 1.312M217.25 204.22c-1.943.938-3.135 2.78-1.797 2.78 1.276 0 5.547-2.434 5.547-3.161 0-1.07-.937-.975-3.75.381" fill="#1976D2" fill-rule="evenodd"/></svg>